<svg id="Layer_1" data-name="Layer 1" xmlns="http://www.w3.org/2000/svg" viewBox="0 0 187.18 170.68"><defs><style>.cls-1{fill:#fff;}.cls-2{fill:none;stroke:#fff;stroke-miterlimit:10;stroke-width:3.17px;}</style></defs><title>logo (1)</title><path class="cls-1" d="M70.74,120.93a45.25,45.25,0,1,1,64-1.73A45.25,45.25,0,0,1,70.74,120.93Zm58.3-7.11a37.44,37.44,0,1,0-52.93,1.43A37.44,37.44,0,0,0,129,113.82Z" transform="translate(-8.56 -25.22)"/><path class="cls-1" d="M161.81,86.17a61,61,0,0,1-3.09,16.57l37-66.94L120,25.22a61.09,61.09,0,0,1,35.84,31.61L127.27,41.36a51.71,51.71,0,0,1,20.83,70.11Z" transform="translate(-8.56 -25.22)"/><path class="cls-1" d="M70.34,141.63a61.08,61.08,0,0,1-12.93-10.82l40.2,65.08L144,135a61.08,61.08,0,0,1-45.12,15.74l27.48-17.3A51.71,51.71,0,0,1,55,117.28Z" transform="translate(-8.56 -25.22)"/><path class="cls-1" d="M69,37.34a61,61,0,0,1,16-5.26l-76.5-.27,27.16,71.52A61.08,61.08,0,0,1,46.19,56.71l0.17,32.47a51.71,51.71,0,0,1,51.45-52Z" transform="translate(-8.56 -25.22)"/><path class="cls-1" d="M145.08,75.15A45.25,45.25,0,1,1,88.82,44.66,45.25,45.25,0,0,1,145.08,75.15Zm-54-23a37.44,37.44,0,1,0,46.55,25.22A37.44,37.44,0,0,0,91,52.15Z" transform="translate(-8.56 -25.22)"/><path class="cls-1" d="M109.37,100.31A14.39,14.39,0,0,0,112.2,98a8,8,0,1,1,3.38-14.13A14.35,14.35,0,1,0,109.37,100.31Z" transform="translate(-8.56 -25.22)"/><path class="cls-1" d="M123.05,81.7a22.26,22.26,0,1,1-27.69-15A22.27,22.27,0,0,1,123.05,81.7ZM96.46,70.38a18.42,18.42,0,1,0,22.91,12.41A18.42,18.42,0,0,0,96.46,70.38Z" transform="translate(-8.56 -25.22)"/><circle class="cls-1" cx="101.73" cy="88.04" r="15.95" transform="translate(-16.12 141.29) rotate(-76.55)"/><ellipse class="cls-2" cx="101.73" cy="88.04" rx="34.8" ry="33.92" transform="translate(-16.12 141.29) rotate(-76.55)"/></svg>
