<?xml version="1.0" encoding="utf-8"?>
<!-- Generator: Adobe Illustrator 19.2.1, SVG Export Plug-In . SVG Version: 6.00 Build 0)  -->
<svg version="1.1" id="Layer_1" xmlns="http://www.w3.org/2000/svg" xmlns:xlink="http://www.w3.org/1999/xlink" x="0px" y="0px"
	 viewBox="0 0 861.1 165.4" style="enable-background:new 0 0 861.1 165.4;" xml:space="preserve">
<g>
	<path d="M9,164.3c-0.7-0.3-0.8-0.5-0.8-1.6c0-2.1,0.2-3.7,0.3-4.4c0.1-0.5,0.2-0.7,0.4-0.7c0.3,0,0.4,0.1,0.4,0.5
		c0,0.4,0,0.9,0.2,1.5c0.8,3,4.3,4.2,7.8,4.2c5.1,0,7.6-2.8,7.6-5.5c0-2.8-1.5-4.5-6.1-7.4l-2.4-1.5c-5.6-3.6-6.9-6.1-6.9-8.9
		c0-4.4,4.2-7.4,11-7.4c2.1,0,3.6,0.2,4.9,0.4c1,0.2,1.4,0.2,1.9,0.2c0.4,0,0.5,0.1,0.5,0.3c0,0.2-0.2,1.6-0.2,4.4
		c0,0.7-0.1,0.9-0.4,0.9c-0.3,0-0.4-0.2-0.4-0.5c-0.1-0.5-0.4-1.6-0.7-2.1c-0.3-0.5-1.7-2.2-6.6-2.2c-3.7,0-6.5,1.8-6.5,4.8
		c0,2.3,1.4,3.8,6.5,6.9l1.5,0.9c6.2,3.8,7.7,6.4,7.7,9.7c0,1.7-0.8,4.8-4.5,6.8c-2.3,1.2-5.1,1.7-8,1.7
		C13.6,165.4,11.1,165.1,9,164.3z"/>
	<path d="M109,133.1c11.9,0,20.8,5.8,20.8,15.4c0,9.2-8.4,16.8-21.1,16.8c-14.5,0-20.5-8.8-20.5-16.2
		C88.1,142.6,94.4,133.1,109,133.1z M110.1,163.8c4.8,0,14.6-2.1,14.6-14.1c0-9.9-7.7-15.2-16.1-15.2c-8.8,0-15.5,4.5-15.5,13.5
		C93.2,157.7,100.6,163.8,110.1,163.8z"/>
	<path d="M191.2,145.6c0-6.4,0-7.6-0.1-8.9c-0.1-1.4-0.5-2.1-2.3-2.3c-0.4-0.1-1.3-0.1-1.8-0.1c-0.2,0-0.4-0.1-0.4-0.2
		c0-0.2,0.3-0.3,0.8-0.3c2.4,0,5.6,0.1,6.1,0.1c0.5,0,3.7-0.1,5.2-0.1c0.6,0,0.8,0.1,0.8,0.3c0,0.2-0.2,0.2-0.4,0.2
		c-0.4,0-0.7,0-1.3,0.1c-1.4,0.2-1.9,0.9-2,2.3c-0.1,1.3-0.1,2.5-0.1,8.9v5.8c0,5.9,1.7,8.5,4,10.2c2.6,1.9,5,2.3,8,2.3
		c3.2,0,6.4-1.2,8.3-3c2.4-2.3,3.1-5.8,3.1-10.1v-5.1c0-6.4,0-7.6-0.1-8.9c-0.1-1.4-0.5-2.1-2.3-2.3c-0.4-0.1-1.3-0.1-1.8-0.1
		c-0.2,0-0.4-0.1-0.4-0.2c0-0.2,0.3-0.3,0.8-0.3c2.4,0,5.3,0.1,5.6,0.1c0.4,0,2.9-0.1,4.4-0.1c0.6,0,0.8,0.1,0.8,0.3
		c0,0.2-0.2,0.2-0.4,0.2c-0.4,0-0.7,0-1.3,0.1c-1.4,0.2-1.9,0.9-2,2.3c-0.1,1.3-0.1,2.5-0.1,8.9v4.4c0,4.4-0.6,9.4-4.9,12.3
		c-3.8,2.6-7.8,3-10.9,3c-1.8,0-7.1-0.2-10.9-2.9c-2.6-1.9-4.6-4.8-4.6-10.8V145.6z"/>
	<path d="M291.3,159.2c0.1,3.4,0.6,4.4,2.1,4.8c1,0.2,2.2,0.2,2.6,0.2c0.3,0,0.4,0.1,0.4,0.2c0,0.2-0.3,0.3-1,0.3
		c-3,0-5.1-0.1-5.6-0.1s-2.7,0.1-5.1,0.1c-0.5,0-0.8,0-0.8-0.3c0-0.2,0.2-0.2,0.4-0.2c0.4,0,1.4,0,2.2-0.2c1.3-0.3,1.6-1.5,1.6-5.2
		l0.1-23.6c0-1.6,0.2-2.1,0.6-2.1c0.4,0,1.3,0.9,1.9,1.3c0.8,0.7,8.7,7.3,16.8,14.1c5.2,4.4,11,9.4,12.7,10.7l-0.6-20.9
		c-0.1-2.7-0.4-3.6-2.1-3.9c-1-0.2-2.2-0.2-2.6-0.2c-0.4,0-0.4-0.1-0.4-0.3c0-0.2,0.4-0.3,1.1-0.3c2.4,0,4.9,0.1,5.5,0.1
		c0.6,0,2.3-0.1,4.5-0.1c0.6,0,1,0,1,0.3c0,0.2-0.2,0.3-0.6,0.3c-0.3,0-0.6,0-1.3,0.1c-1.7,0.3-2,1.2-2,3.7l-0.1,24.1
		c0,2.7-0.1,2.9-0.5,2.9c-0.4,0-1.1-0.5-3.9-2.6c-0.6-0.4-8.2-6.5-13.8-11.1c-6.1-5.1-12.1-10.3-13.8-11.8L291.3,159.2z"/>
	<path d="M391.6,145.6c0-6.4,0-7.6-0.1-8.9c-0.1-1.4-0.5-2.1-2.3-2.3c-0.4-0.1-1.3-0.1-1.8-0.1c-0.2,0-0.4-0.1-0.4-0.2
		c0-0.2,0.3-0.3,0.8-0.3c2.4,0,5.7,0.1,6,0.1c0.6,0,4-0.1,7.1-0.1c5.2,0,14.9-0.4,21.2,4.7c2.6,2.1,5.1,5.6,5.1,10.4
		c0,5.2-2.8,9.2-5.7,11.6c-2.3,1.9-7,4.7-16,4.7c-2.3,0-5.1-0.1-7.4-0.2c-2.3-0.1-4.1-0.2-4.4-0.2c-0.1,0-1,0-2.1,0
		c-1.1,0-2.3,0.1-3.1,0.1c-0.6,0-0.8-0.1-0.8-0.3c0-0.1,0.1-0.2,0.4-0.2c0.5,0,1.1-0.1,1.6-0.2c1.1-0.2,1.3-1.1,1.5-2.3
		c0.3-1.7,0.3-5,0.3-8.9V145.6z M396.1,150.1c0,4.4,0.1,8.1,0.1,8.9c0.1,1,0.2,2.7,0.6,3.1c0.7,0.8,2.8,1.6,9,1.6
		c4.9,0,9.5-1.4,12.6-3.8c2.8-2.1,4.2-6,4.2-9.8c0-5.2-2.9-8.6-5.1-10.4c-5-4.1-11-4.6-17.3-4.6c-1.1,0-3,0.1-3.4,0.3
		c-0.5,0.2-0.6,0.4-0.6,0.8c-0.1,1.4-0.1,5.6-0.1,8.8V150.1z"/>
	<path d="M488.5,164.3c-0.7-0.3-0.8-0.5-0.8-1.6c0-2.1,0.2-3.7,0.3-4.4c0.1-0.5,0.2-0.7,0.4-0.7c0.3,0,0.4,0.1,0.4,0.5
		c0,0.4,0,0.9,0.2,1.5c0.8,3,4.3,4.2,7.8,4.2c5.1,0,7.6-2.8,7.6-5.5c0-2.8-1.5-4.5-6.1-7.4l-2.4-1.5c-5.6-3.6-6.9-6.1-6.9-8.9
		c0-4.4,4.2-7.4,11-7.4c2.1,0,3.6,0.2,4.9,0.4c1,0.2,1.4,0.2,1.9,0.2c0.4,0,0.5,0.1,0.5,0.3c0,0.2-0.2,1.6-0.2,4.4
		c0,0.7-0.1,0.9-0.4,0.9c-0.3,0-0.4-0.2-0.4-0.5c-0.1-0.5-0.4-1.6-0.7-2.1c-0.3-0.5-1.7-2.2-6.6-2.2c-3.7,0-6.5,1.8-6.5,4.8
		c0,2.3,1.4,3.8,6.5,6.9l1.5,0.9c6.2,3.8,7.7,6.4,7.7,9.7c0,1.7-0.8,4.8-4.5,6.8c-2.3,1.2-5.1,1.7-8,1.7
		C493.1,165.4,490.6,165.1,488.5,164.3z"/>
	<path d="M574,160.9c-5.1-3.6-6.4-8.3-6.4-12.2c0-2.8,1.2-7.6,5.9-11.2c3.2-2.5,8-4.4,16.2-4.4c2.1,0,5.1,0.1,7.7,0.5
		c2,0.3,3.7,0.5,5.4,0.6c0.6,0,0.7,0.2,0.7,0.5c0,0.3-0.2,0.8-0.3,2.3c-0.1,1.4-0.1,3.6-0.2,4.2c-0.1,0.6-0.2,0.9-0.5,0.9
		c-0.4,0-0.4-0.3-0.4-0.9c0-1.6-0.8-3.3-2.2-4.2c-1.9-1.2-5.9-2.3-10.6-2.3c-7,0-10.3,1.6-12.2,3c-3.9,2.9-4.8,6.5-4.8,10.7
		c0,7.9,7.8,15.1,19.1,15.1c4,0,7.1-0.4,9.2-2.1c1.1-0.9,1.8-2.7,2-3.5c0.1-0.5,0.2-0.6,0.5-0.6c0.3,0,0.4,0.3,0.4,0.6
		c0,0.3-0.6,3.9-1.2,5.3c-0.3,0.8-0.4,0.9-1.4,1.2c-2.1,0.7-6.1,0.9-9.5,0.9C583.6,165.4,578.2,163.9,574,160.9z"/>
	<path d="M675.6,134.8c0.6-1.4,0.8-1.6,1.2-1.6c0.3,0,0.5,0.2,1.2,1.5c0.8,1.6,9.1,18.5,12.3,24.8c1.9,3.7,3.4,4.3,4.6,4.6
		c0.8,0.2,1.6,0.2,2.1,0.2c0.3,0,0.5,0,0.5,0.2c0,0.2-0.5,0.3-1.1,0.3c-0.8,0-4.7,0-8.3-0.1c-1,0-1.6,0-1.6-0.3
		c0-0.2,0.2-0.2,0.4-0.3c0.3-0.1,0.6-0.5,0.3-1.1l-4.9-10.1c-0.1-0.2-0.2-0.2-0.5-0.2h-11.4c-0.3,0-0.4,0.1-0.5,0.3l-3.2,7.3
		c-0.5,1-0.7,2-0.7,2.8c0,0.8,1.1,1.2,2,1.2h0.5c0.4,0,0.5,0.1,0.5,0.2c0,0.2-0.3,0.3-0.8,0.3c-1.3,0-3.5-0.1-4.1-0.1
		c-0.6,0-3.5,0.1-6,0.1c-0.7,0-1-0.1-1-0.3c0-0.2,0.2-0.2,0.5-0.2c0.4,0,1.1,0,1.5-0.1c2.4-0.2,3.5-1.8,4.4-3.9L675.6,134.8z
		 M681.1,151.2c0.3,0,0.3-0.1,0.2-0.3l-5-11.1c-0.3-0.6-0.5-0.6-0.8,0l-4.7,11.1c-0.1,0.2,0,0.3,0.2,0.3H681.1z"/>
	<path d="M756.6,145.6c0-6.4,0-7.6-0.1-8.9c-0.1-1.4-0.5-2.1-2.3-2.3c-0.4-0.1-1.3-0.1-1.8-0.1c-0.2,0-0.4-0.1-0.4-0.2
		c0-0.2,0.3-0.3,0.8-0.3c2.4,0,5.6,0.1,6,0.1c1.2,0,4.2-0.1,6.7-0.1c6.6,0,9,1.7,9.8,2.3c1.2,0.9,2.6,2.7,2.6,4.9
		c0,5.8-5.5,9.8-13,9.8c-0.3,0-0.8,0-1.1,0c-0.3,0-0.6-0.1-0.6-0.3c0-0.3,0.3-0.4,1.4-0.4c5.1,0,9.2-2.9,9.2-6.7
		c0-1.4-0.2-4.1-3-6.3c-2.8-2.2-6-2.1-7.3-2.1c-0.9,0-1.8,0.1-2.3,0.2c-0.3,0.1-0.4,0.4-0.4,0.8v16.9c0,3.9,0,7.2,0.3,8.9
		c0.2,1.2,0.5,2.1,2.1,2.3c0.7,0.1,1.9,0.2,2.4,0.2c0.3,0,0.4,0.1,0.4,0.2c0,0.2-0.3,0.3-0.8,0.3c-2.9,0-6.2-0.1-6.5-0.1
		c-0.2,0-3.5,0.1-5.1,0.1c-0.6,0-0.8-0.1-0.8-0.3c0-0.1,0.1-0.2,0.4-0.2c0.5,0,1.1-0.1,1.6-0.2c1.1-0.2,1.3-1.1,1.5-2.3
		c0.3-1.7,0.3-5,0.3-8.9V145.6z"/>
	<path d="M842.3,145.6c0-6.4,0-7.6-0.1-8.9c-0.1-1.4-0.5-2.1-2.3-2.3c-0.4-0.1-1.3-0.1-1.8-0.1c-0.2,0-0.4-0.1-0.4-0.2
		c0-0.2,0.3-0.3,0.8-0.3c1.2,0,2.6,0,3.8,0l2.2,0.1c0.4,0,10.9,0,12.1,0c1,0,1.9-0.1,2.3-0.2c0.3,0,0.5-0.2,0.7-0.2
		c0.2,0,0.2,0.2,0.2,0.4c0,0.3-0.3,0.8-0.4,1.9c-0.1,0.4-0.2,2.2-0.3,2.7c-0.1,0.2-0.2,0.5-0.4,0.5c-0.3,0-0.4-0.2-0.4-0.5
		c0-0.3-0.1-1-0.3-1.5c-0.4-0.7-0.9-1.2-3.8-1.4c-0.9-0.1-6.7-0.1-7.3-0.1c-0.2,0-0.3,0.1-0.3,0.4v11.4c0,0.3,0.1,0.4,0.3,0.4
		c0.7,0,7.2,0,8.4-0.1c1.3-0.1,2-0.2,2.5-0.6c0.4-0.3,0.6-0.5,0.8-0.5c0.2,0,0.3,0.1,0.3,0.3c0,0.2-0.3,0.9-0.4,2.3
		c-0.1,0.8-0.2,2.3-0.2,2.6c0,0.3,0,0.8-0.4,0.8c-0.3,0-0.4-0.2-0.4-0.4c0-0.4,0-0.8-0.2-1.4c-0.2-0.6-0.7-1.3-2.8-1.4
		c-1.4-0.1-6.7-0.2-7.6-0.2c-0.3,0-0.4,0.1-0.4,0.3v3.6c0,1.4-0.1,6.2,0,7c0.2,2.8,1,3.4,6.1,3.4c1.4,0,3.7,0,5.1-0.5
		c1.4-0.5,2-1.3,2.4-3c0.1-0.5,0.2-0.6,0.5-0.6c0.3,0,0.3,0.3,0.3,0.6c0,0.3-0.4,3.1-0.7,4c-0.4,1.1-0.8,1.1-2.9,1.1
		c-4,0-6.9-0.1-8.9-0.1c-2.1-0.1-3.3-0.1-4.1-0.1c-0.1,0-1,0-2.1,0c-1.1,0-2.3,0.1-3.1,0.1c-0.6,0-0.8-0.1-0.8-0.3
		c0-0.1,0.1-0.2,0.4-0.2c0.5,0,1.1-0.1,1.6-0.2c1.1-0.2,1.3-1.1,1.5-2.3c0.3-1.7,0.3-5,0.3-8.9V145.6z"/>
</g>
<path d="M17,90.1c0.2,9.9,1.5,13.1,4.8,14c2.3,0.6,5,0.7,6.1,0.7c0.6,0,1,0.2,1,0.7c0,0.7-0.7,1-2.2,1c-7,0-11.9-0.4-13-0.4
	c-1.1,0-6.2,0.4-11.8,0.4c-1.2,0-2-0.1-2-1c0-0.5,0.4-0.7,1-0.7c1,0,3.2-0.1,5-0.7c3.1-0.8,3.7-4.4,3.7-15.4L9.8,8
	c0-4.7,0.4-6.1,1.3-6.1c1,0,3.1,2.7,4.3,3.9c1.8,2.1,20.1,21.5,38.9,41.5c12.1,12.8,25.5,27.6,29.4,31.6l-1.3-61.5
	c-0.1-7.9-1-10.5-4.8-11.5c-2.2-0.5-5-0.6-6-0.6c-0.9,0-1-0.4-1-0.8c0-0.7,1-0.8,2.4-0.8C78.6,3.6,84.5,4,85.8,4
	c1.3,0,5.4-0.4,10.4-0.4c1.3,0,2.2,0.1,2.2,0.8c0,0.5-0.5,0.8-1.3,0.8c-0.6,0-1.5,0-2.9,0.4c-4,0.8-4.5,3.5-4.5,10.8l-0.2,70.9
	c0,8-0.2,8.6-1.1,8.6c-1,0-2.4-1.3-8.9-7.7c-1.3-1.2-19-19-32-32.8c-14.2-15.1-28-30.4-32-34.7L17,90.1z"/>
<path d="M264,82.8c7.1-13.7,23.5-49.4,26.2-56.7c0.6-1.5,1.1-3,1.1-3.9c0-0.8-0.4-1.8-1.6-2.4c-1.5-0.4-3.3-0.4-4.7-0.4
	c-0.7,0-1.3-0.1-1.3-0.6c0-0.6,0.7-0.8,2.7-0.8c4.9,0,10.5,0.3,12,0.3c0.7,0,6-0.3,9.6-0.3c1.3,0,2.1,0.2,2.1,0.7
	c0,0.5-0.5,0.7-1.5,0.7c-0.9,0-3.6,0-5.9,1.2c-1.6,0.9-3.4,2.7-6.7,9.6c-1.3,2.9-7.5,15.1-13.7,27.7c-7.5,14.9-13,26-15.8,31
	c-3.4,6.1-3.9,7.8-5.1,7.8c-1.5,0-2.1-1.4-4.4-6.3l-30-62.7c-2.7-5.7-4.5-6.8-8.8-7.9c-1.8-0.4-3.9-0.4-4.7-0.4c-0.7,0-1-0.3-1-0.7
	c0-0.6,1.2-0.7,3.2-0.7c5.9,0,12.9,0.3,14.3,0.3c1.2,0,6.7-0.3,11.4-0.3c2.2,0,3.3,0.2,3.3,0.7c0,0.5-0.4,0.7-1.2,0.7
	c-1.3,0-3.6,0.1-4.7,0.5c-1.3,0.5-1.6,1.3-1.6,2c0,1.3,1.5,4.5,3.3,8.5L264,82.8z"/>
<path d="M515.7,65.6c0,9.8,0,17.9,0.6,22.2c0.4,3,1.1,5.2,4.8,5.6c1.7,0.2,4.4,0.4,5.5,0.4c0.7,0,1,0.3,1,0.6c0,0.5-0.6,0.8-2,0.8
	c-6.7,0-14.4-0.3-15.1-0.3c-0.6,0-8.3,0.3-12,0.3c-1.3,0-2-0.2-2-0.8c0-0.3,0.2-0.6,1-0.6c1.1,0,2.6-0.2,3.7-0.4
	c2.4-0.4,3.1-2.7,3.6-5.6c0.6-4.3,0.6-12.4,0.6-22.2V22.4l-18.1,0.2c-7.6,0.1-10.5,0.8-12.5,3.3c-1.3,1.7-1.7,2.5-2.1,3.2
	c-0.4,0.8-0.7,1-1.2,1c-0.4,0-0.6-0.3-0.6-0.9c0-1,2.4-9.8,2.7-10.6c0.2-0.6,0.7-1.9,1.2-1.9c0.9,0,2.1,1,5.4,1.2
	c3.6,0.3,8.2,0.5,9.7,0.5h45.9c3.9,0,6.7-0.2,8.7-0.5c1.8-0.2,2.9-0.5,3.4-0.5c0.6,0,0.6,0.6,0.6,1.2c0,3.1-0.4,10.1-0.4,11.2
	c0,0.9-0.4,1.3-0.9,1.3c-0.6,0-0.9-0.3-1-1.7l-0.1-1.1c-0.4-3.1-3.3-5.4-15.1-5.6l-15.4-0.2V65.6z"/>
<path d="M574.2,47.6c0-15.9,0-18.8-0.2-22.1c-0.2-3.5-1.2-5.1-5.3-5.8c-1-0.2-3.1-0.3-4.2-0.3c-0.5,0-1-0.2-1-0.6
	c0-0.6,0.6-0.8,2-0.8c5.5,0,13.2,0.3,13.8,0.3c1.3,0,10.7-0.3,14.4-0.3c7.7,0,15.9,0.6,22.4,4.5c3.1,1.8,8.4,6.8,8.4,13.9
	c0,7.6-3.8,15.1-14.8,23.6c10,10.7,18.4,19.8,25.5,26.2c6.6,5.8,11.9,7,14.9,7.4c2.3,0.3,4,0.3,4.8,0.3c0.6,0,1.1,0.3,1.1,0.6
	c0,0.6-0.7,0.8-2.9,0.8h-8.7c-6.9,0-9.9-0.5-13.1-1.9c-5.3-2.4-9.6-7.4-16.5-15c-5.1-5.6-10.9-12.5-13.3-15.1
	c-0.5-0.4-0.9-0.6-1.6-0.6l-15.1-0.2c-0.6,0-0.9,0.3-0.9,0.8v2.5c0,9.8,0,17.9,0.6,22.2c0.4,3,1.1,5.2,4.8,5.6
	c1.7,0.2,4.4,0.4,5.5,0.4c0.7,0,1,0.3,1,0.6c0,0.5-0.6,0.8-2,0.8c-6.7,0-14.5-0.3-15.1-0.3c-0.1,0-7.8,0.3-11.5,0.3
	c-1.3,0-2-0.2-2-0.8c0-0.3,0.2-0.6,1-0.6c1.1,0,2.6-0.2,3.7-0.4c2.4-0.4,3.1-2.7,3.6-5.6c0.6-4.3,0.6-12.4,0.6-22.2V47.6z M584,56.5
	c0,0.5,0.2,0.9,0.9,1.2c1.8,0.9,7.5,1.6,12.9,1.6c2.9,0,6.4-0.3,9.2-1.9c4.3-2.5,7.5-8,7.5-15.7c0-12.8-8.1-20.4-21.2-20.4
	c-3.7,0-7,0.3-8.2,0.6c-0.6,0.2-1,0.6-1,1.2V56.5z"/>
<path d="M679.8,65.6c0,9.8,0,17.9,0.6,22.2c0.4,3,1.1,5.2,4.8,5.6c1.7,0.2,4.4,0.4,5.5,0.4c0.7,0,1,0.3,1,0.6c0,0.5-0.6,0.8-2,0.8
	c-6.7,0-14.5-0.3-15.1-0.3c-0.6,0-8.3,0.3-12,0.3c-1.3,0-2-0.2-2-0.8c0-0.3,0.2-0.6,1-0.6c1.1,0,2.6-0.2,3.7-0.4
	c2.4-0.4,3.1-2.7,3.6-5.6c0.6-4.3,0.6-12.4,0.6-22.2v-18c0-15.9,0-18.8-0.2-22.1c-0.2-3.5-1.5-5.2-4.2-5.7c-1.3-0.3-2.9-0.4-3.8-0.4
	c-0.5,0-1-0.2-1-0.6c0-0.6,0.6-0.8,2-0.8c4,0,11.8,0.3,12.4,0.3c0.6,0,8.3-0.3,12-0.3c1.3,0,2,0.2,2,0.8c0,0.4-0.5,0.6-1,0.6
	c-0.9,0-1.6,0.1-3.1,0.3c-3.3,0.5-4.3,2.2-4.5,5.8c-0.2,3.3-0.2,6.1-0.2,22.1V65.6z"/>
<path d="M705.4,54c0-18.3,0-36.6-0.3-40.3c-0.3-4-1.4-5.9-6-6.7c-1.1-0.2-3.5-0.4-4.8-0.4c-0.6,0-1.1-0.2-1.1-0.7
	c0-0.7,0.7-0.9,2.3-0.9c6.3,0,14.6,0.4,15.5,0.4c1.3,0,9.4-0.4,13.6-0.4c1.5,0,2.2,0.2,2.2,0.9c0,0.5-0.6,0.7-1.1,0.7
	c-1,0-1.8,0.1-3.5,0.4c-3.8,0.6-4.9,2.6-5.2,6.7c-0.3,3.8-0.3,22-0.3,40.3v7h0.6c2.4-2.2,27.9-23.8,32.9-28.4
	c3.9-3.4,7.6-6.5,7.6-8.5c0-1.4-0.7-2.1-1.8-2.5c-0.7-0.2-1.3-0.5-1.3-0.9c0-0.6,0.7-0.8,1.7-0.8c2.8,0,7.2,0.4,10.5,0.4
	c0.7,0,10-0.4,13.5-0.4c1.5,0,2.1,0.2,2.1,0.8c0,0.6-0.3,0.8-1.4,0.8c-2.1,0-5.1,0.6-7.9,1.6c-5.8,2.1-8.9,5-15.2,10.1
	c-3.5,2.8-28,22.8-30.9,25.7c3.7,3.4,32.9,28.7,38.7,33.1c11.8,9.2,14.2,11,21,13.4c3.7,1.3,7.7,1.5,8.7,1.5c1,0,1.8,0.2,1.8,0.7
	c0,0.6-0.7,0.9-3.1,0.9H787c-3.9,0-6.6,0-9.7-0.2c-7.5-0.6-11-3.2-17-7.2c-6.3-4.3-36.2-31.2-42.9-38.2h-0.7v11.5
	c0,11.3,0,7.4,0.7,12.4c0.4,3.4,1.3,6,5.5,6.5c2,0.2,4.2,0.5,5.5,0.5c0.8,0,1.1,0.4,1.1,0.7c0,0.6-0.7,0.9-2.2,0.9
	c-6.9,0-15.1-0.4-16.2-0.4c-1.1,0-9.3,0.4-13.5,0.4c-1.5,0-2.3-0.2-2.3-0.9c0-0.4,0.3-0.7,1.1-0.7c1.3,0,3-0.2,4.2-0.5
	c2.8-0.5,3.5-3.1,4.1-6.5c0.7-4.9,0.7-1.1,0.7-12.4V54z"/>
<path d="M799.6,37.1c0-19.4,0-22.9-0.3-26.9C799,6,797.8,4,792.9,3.1c-1.2-0.3-3.7-0.4-5.1-0.4c-0.6,0-1.2-0.2-1.2-0.7
	c0-0.7,0.7-1,2.4-1c3.4,0,7.5,0,10.7,0.1l21-0.1c1,0,15.9,0.4,19.3,0.2c2.8-0.1,5.2-0.4,6.4-0.6c0.7-0.1,1.3-0.6,2.1-0.6
	c0.4,0,0.6,0.5,0.6,1.1c0,0.9-0.7,2.4-1.2,5.9c-0.1,1.2-0.4,6.7-0.7,8.2c-0.1,0.6-0.4,1.4-1,1.4c-0.9,0-1.2-0.6-1.2-1.6
	c0-0.9-0.1-3-0.9-4.5c-1-2-2.5-3.5-10.6-4.2C830.9,6,814.6,5.9,813,5.9c-0.6,0-0.9,0.4-0.9,1.2v34.4c0,0.9,0.1,1.2,0.9,1.2
	c1.9,0,20.3,0,23.7-0.2c3.6-0.3,5.7-0.5,7-1.7c1-1,1.6-1.6,2.2-1.6c0.4,0,0.7,0.2,0.7,1c0,0.7-0.7,2.9-1.2,7c-0.3,2.5-0.6,7.1-0.6,8
	c0,1,0,2.4-1,2.4c-0.7,0-1-0.5-1-1.1c0-1.2,0-2.5-0.6-4.1c-0.6-1.7-1.9-3.9-7.8-4.4c-4-0.4-18.8-0.6-21.3-0.6c-0.7,0-1,0.4-1,0.9v11
	c0,4.2-0.1,18.7,0,21.3c0.4,8.6,2.7,10.2,17.3,10.2c3.9,0,10.4,0,14.3-1.4c3.9-1.4,5.7-3.9,6.7-9c0.3-1.4,0.6-1.9,1.3-1.9
	c0.9,0,0.9,1,0.9,1.9c0,1-1.2,9.5-1.9,12.1c-1,3.2-2.2,3.2-8.1,3.2c-11.2,0-19.4-0.2-25.2-0.4c-5.8-0.2-9.4-0.4-11.6-0.4
	c-0.3,0-2.8,0-6,0.1c-3,0-6.4,0.2-8.7,0.2c-1.6,0-2.4-0.2-2.4-1c0-0.4,0.3-0.7,1.2-0.7c1.3,0,3.1-0.3,4.5-0.5c3-0.5,3.7-3.2,4.3-6.9
	c0.7-5.2,0.7-15.1,0.7-27V37.1z"/>
<g>
	<path d="M172.4,89.8c-23.6,7-48.9-4.4-57-24.4c-7.1-20,5.1-40.9,27.3-48.7c19.2-7,42.5-1.7,55.7,13.1c12.1,13.9,12.1,30.5,5.9,44.9
		c-1.1,2.6-2.6,5-4.2,7.3c-8.3,11.5-23,19.1-41.6,19.1c-21.2,0-34.6-8.8-41.7-20c-1.4-2.2-2.6-4.6-3.5-7
		c12.3,18.3,42.6,27,63.6,14.6C177.1,88.4,175.4,89,172.4,89.8z M192.2,86c17.4-13.6,19.4-37.1,6.2-53.6
		c-17.2-19.1-49.6-21.8-69.8-4.4c-16.2,14.8-16.2,38.3,2,52.2c16.2,12.2,41.5,11.3,55.7-2.6c10.1-10.4,10.1-22.6,7.1-35.7
		c-2-5.2,0,0,0,0c-3-10.4-13.2-16.5-24.3-19.1c-21.3-4.4-42.5,8.7-46.6,27c2-23.5,33.4-37.4,57.7-27c25.3,10.4,32.4,40.9,15.2,59.5
		C193.5,84.5,192.2,85.8,192.2,86z"/>
	<path d="M162.1,74.7c-12.6,0-23.1-10.1-23.1-22.3c0-3.2,0.7-6.2,2-8.9c-8.3,12.5-2.4,33.7,17.8,33.7c6.5,0,11.5-2.2,15.1-5.6
		C170.4,73.5,166.3,74.7,162.1,74.7z"/>
</g>
<path d="M345.5,27.8l10.8,30c0.1,0.4,0.1,0.8-0.5,0.8h-32.1c-0.3,0-0.6-0.2-0.3-0.8l12.3-35.1c-0.5-0.7-2.5-3.4-3.4-4.3
	c0,0-24.4,64.7-24.4,64.7c-2,5.5-4.3,9.8-9.5,10.4c-0.9,0.1-2.5,0.2-3.3,0.2c-0.6,0-1,0.2-1,0.7c0,0.7,0.7,0.9,2.2,0.9
	c5.3,0,11.6-0.3,12.8-0.3s6.1,0.3,8.8,0.3c1,0,1.7-0.2,1.7-0.9c0-0.4-0.3-0.7-1.1-0.7h-1.1c-1.9,0-4.3-1-4.3-3.2
	c0-2,0.6-4.7,1.6-7.4l6.8-19.6c0.2-0.6,0.6-0.9,1.1-0.9h34.8c0.6,0,0.8,0.2,1,0.7l10.5,27.3c0.7,1.8,0,2.8-0.7,3
	c-0.5,0.1-0.8,0.3-0.8,0.8c0,0.7,1.2,0.7,3.4,0.8c7.8,0.2,16.1,0.2,17.8,0.2c1.2,0,2.3-0.2,2.3-0.9c0-0.6-0.5-0.7-1.1-0.7
	c-1.1,0-2.8-0.1-4.5-0.7c-2.4-0.7-5.7-2.4-9.7-12.3C368.5,63.9,350.7,18,349,13.8C347.6,10.4,346.7,2,346,2
	c-0.1,0-19.3,3.8-17.6,3.8c8.6,0,13.9,14.2,13.9,14.2L345.5,27.8z"/>
<polygon points="816.3,1 70.1,1 70.1,6.3 800,6.3 "/>
<path d="M397.1,93.9c-2.4-0.7-2.6-1.1-2.6-3.9c0-5.1,0.7-9.2,0.9-10.8c0.2-1.1,0.5-1.6,1.4-1.6c1,0,1.2,0.3,1.2,1.1
	c0,0.9,0,2.3,0.5,3.8c2.6,7.6,14,10.4,25.5,10.4c16.6,0,24.7-7,24.7-13.6c0-7-5-11.1-19.8-18.4l-7.8-3.8
	c-18.3-8.9-22.4-15.2-22.4-22.2c0-10.9,13.8-18.4,35.7-18.4c6.7,0,11.7,0.4,16,1c3.3,0.4,4.7,0.5,6,0.5c1.4,0,1.7,0.2,1.7,0.7
	s-0.7,3.9-0.7,10.8c0,1.6-0.3,2.3-1.2,2.3c-1,0-1.2-0.5-1.4-1.3c-0.2-1.2-1.2-4-2.2-5.1c-1-1.1-5.7-5.4-21.6-5.4
	c-11.9,0-21.2,4.4-21.2,11.9c0,5.8,4.5,9.5,21.1,17.2l4.8,2.2c20.4,9.5,25.2,15.8,25.2,24c0,4.2-2.8,12-14.7,17
	c-7.4,3.1-16.7,4.3-26.1,4.3C412.1,96.7,404.2,96,397.1,93.9z"/>
</svg>
